solid doomsday
facet normal 0.0 0.0 1.0
  outer loop
    vertex 60.5876215609561 45.16528848626164 3.9999999999999996
    vertex 40.0876215609561 47.16528848626164 3.9999999999999996
    vertex 31.58762156095611 45.16528848626164 3.9999999999999996
  endloop
endfacet
facet normal 0.0 0.0 1.0
  outer loop
    vertex 40.0876215609561 47.16528848626164 3.9999999999999996
    vertex 60.5876215609561 45.16528848626164 3.9999999999999996
    vertex 52.0876215609561 47.16528848626164 3.9999999999999996
  endloop
endfacet
facet normal 0.0 0.0 1.0
  outer loop
    vertex 52.0876215609561 47.16528848626164 3.9999999999999996
    vertex 60.5876215609561 45.16528848626164 3.9999999999999996
    vertex 52.0876215609561 51.165288486261645 3.9999999999999996
  endloop
endfacet
facet normal 0.0 0.0 1.0
  outer loop
    vertex 64.58762156095611 16.165288486261645 3.9999999999999996
    vertex 31.58762156095611 24.16528848626164 3.9999999999999996
    vertex 27.587621560956116 16.165288486261645 3.9999999999999996
  endloop
endfacet
facet normal 0.0 0.0 1.0
  outer loop
    vertex 31.58762156095611 24.16528848626164 3.9999999999999996
    vertex 64.58762156095611 16.165288486261645 3.9999999999999996
    vertex 60.5876215609561 24.16528848626164 3.9999999999999996
  endloop
endfacet
facet normal 0.0 0.0 1.0
  outer loop
    vertex 60.5876215609561 24.16528848626164 3.9999999999999996
    vertex 64.58762156095611 16.165288486261645 3.9999999999999996
    vertex 60.5876215609561 45.16528848626164 3.9999999999999996
  endloop
endfacet
facet normal 0.0 0.0 1.0
  outer loop
    vertex 60.5876215609561 45.16528848626164 3.9999999999999996
    vertex 64.58762156095611 16.165288486261645 3.9999999999999996
    vertex 64.5876215609561 53.16528848626164 3.9999999999999996
  endloop
endfacet
facet normal 0.0 0.0 1.0
  outer loop
    vertex 27.58762156095611 53.16528848626164 3.9999999999999996
    vertex 40.0876215609561 51.165288486261645 3.9999999999999996
    vertex 64.5876215609561 53.16528848626164 3.9999999999999996
  endloop
endfacet
facet normal 0.0 0.0 1.0
  outer loop
    vertex 40.0876215609561 51.165288486261645 3.9999999999999996
    vertex 27.58762156095611 53.16528848626164 3.9999999999999996
    vertex 31.58762156095611 45.16528848626164 3.9999999999999996
  endloop
endfacet
facet normal 0.0 0.0 1.0
  outer loop
    vertex 31.58762156095611 45.16528848626164 3.9999999999999996
    vertex 27.58762156095611 53.16528848626164 3.9999999999999996
    vertex 27.587621560956116 16.165288486261645 3.9999999999999996
  endloop
endfacet
facet normal 0.0 0.0 1.0
  outer loop
    vertex 31.58762156095611 45.16528848626164 3.9999999999999996
    vertex 27.587621560956116 16.165288486261645 3.9999999999999996
    vertex 31.58762156095611 24.16528848626164 3.9999999999999996
  endloop
endfacet
facet normal 0.0 0.0 1.0
  outer loop
    vertex 40.0876215609561 51.165288486261645 3.9999999999999996
    vertex 31.58762156095611 45.16528848626164 3.9999999999999996
    vertex 40.0876215609561 47.16528848626164 3.9999999999999996
  endloop
endfacet
facet normal 0.0 0.0 1.0
  outer loop
    vertex 64.5876215609561 53.16528848626164 3.9999999999999996
    vertex 40.0876215609561 51.165288486261645 3.9999999999999996
    vertex 52.0876215609561 51.165288486261645 3.9999999999999996
  endloop
endfacet
facet normal 0.0 0.0 1.0
  outer loop
    vertex 64.5876215609561 53.16528848626164 3.9999999999999996
    vertex 52.0876215609561 51.165288486261645 3.9999999999999996
    vertex 60.5876215609561 45.16528848626164 3.9999999999999996
  endloop
endfacet
facet normal -1.0 0.0 0.0
  outer loop
    vertex 60.5876215609561 45.16528848626164 3.9999999999999996
    vertex 60.5876215609561 24.16528848626164 0.0
    vertex 60.5876215609561 24.16528848626164 3.9999999999999996
  endloop
endfacet
facet normal -1.0 0.0 0.0
  outer loop
    vertex 60.5876215609561 24.16528848626164 0.0
    vertex 60.5876215609561 45.16528848626164 3.9999999999999996
    vertex 60.5876215609561 45.16528848626164 0.0
  endloop
endfacet
facet normal -0.0 -1.0 -0.0
  outer loop
    vertex 60.5876215609561 45.16528848626164 3.9999999999999996
    vertex 31.58762156095611 45.16528848626164 0.0
    vertex 60.5876215609561 45.16528848626164 0.0
  endloop
endfacet
facet normal -0.0 -1.0 -0.0
  outer loop
    vertex 31.58762156095611 45.16528848626164 0.0
    vertex 60.5876215609561 45.16528848626164 3.9999999999999996
    vertex 31.58762156095611 45.16528848626164 3.9999999999999996
  endloop
endfacet
facet normal 0.0 0.0 -1.0
  outer loop
    vertex 27.58762156095611 53.16528848626164 0.0
    vertex 31.58762156095611 45.16528848626164 0.0
    vertex 27.587621560956116 16.165288486261645 0.0
  endloop
endfacet
facet normal 0.0 0.0 -1.0
  outer loop
    vertex 31.58762156095611 45.16528848626164 0.0
    vertex 27.58762156095611 53.16528848626164 0.0
    vertex 64.5876215609561 53.16528848626164 0.0
  endloop
endfacet
facet normal 0.0 0.0 -1.0
  outer loop
    vertex 31.58762156095611 45.16528848626164 0.0
    vertex 64.5876215609561 53.16528848626164 0.0
    vertex 60.5876215609561 45.16528848626164 0.0
  endloop
endfacet
facet normal 0.0 0.0 -1.0
  outer loop
    vertex 60.5876215609561 45.16528848626164 0.0
    vertex 64.5876215609561 53.16528848626164 0.0
    vertex 60.5876215609561 24.16528848626164 0.0
  endloop
endfacet
facet normal 0.0 0.0 -1.0
  outer loop
    vertex 27.587621560956116 16.165288486261645 0.0
    vertex 31.58762156095611 24.16528848626164 0.0
    vertex 64.58762156095611 16.165288486261645 0.0
  endloop
endfacet
facet normal 0.0 0.0 -1.0
  outer loop
    vertex 31.58762156095611 24.16528848626164 0.0
    vertex 27.587621560956116 16.165288486261645 0.0
    vertex 31.58762156095611 45.16528848626164 0.0
  endloop
endfacet
facet normal 0.0 0.0 -1.0
  outer loop
    vertex 64.58762156095611 16.165288486261645 0.0
    vertex 31.58762156095611 24.16528848626164 0.0
    vertex 60.5876215609561 24.16528848626164 0.0
  endloop
endfacet
facet normal 0.0 0.0 -1.0
  outer loop
    vertex 64.58762156095611 16.165288486261645 0.0
    vertex 60.5876215609561 24.16528848626164 0.0
    vertex 64.5876215609561 53.16528848626164 0.0
  endloop
endfacet
facet normal 0.0 1.0 0.0
  outer loop
    vertex 27.58762156095611 53.16528848626164 3.9999999999999996
    vertex 64.5876215609561 53.16528848626164 0.0
    vertex 27.58762156095611 53.16528848626164 0.0
  endloop
endfacet
facet normal 0.0 1.0 0.0
  outer loop
    vertex 64.5876215609561 53.16528848626164 0.0
    vertex 27.58762156095611 53.16528848626164 3.9999999999999996
    vertex 64.5876215609561 53.16528848626164 3.9999999999999996
  endloop
endfacet
facet normal -0.0 -1.0 -0.0
  outer loop
    vertex 64.58762156095611 16.165288486261645 3.9999999999999996
    vertex 27.587621560956116 16.165288486261645 0.0
    vertex 64.58762156095611 16.165288486261645 0.0
  endloop
endfacet
facet normal -0.0 -1.0 -0.0
  outer loop
    vertex 27.587621560956116 16.165288486261645 0.0
    vertex 64.58762156095611 16.165288486261645 3.9999999999999996
    vertex 27.587621560956116 16.165288486261645 3.9999999999999996
  endloop
endfacet
facet normal -1.0 -1.5243062067826476e-16 -0.0
  outer loop
    vertex 27.58762156095611 53.16528848626164 3.9999999999999996
    vertex 27.587621560956116 16.165288486261645 0.0
    vertex 27.587621560956116 16.165288486261645 3.9999999999999996
  endloop
endfacet
facet normal -1.0 -1.5243062067826476e-16 -0.0
  outer loop
    vertex 27.587621560956116 16.165288486261645 0.0
    vertex 27.58762156095611 53.16528848626164 3.9999999999999996
    vertex 27.58762156095611 53.16528848626164 0.0
  endloop
endfacet
facet normal 1.0 0.0 0.0
  outer loop
    vertex 31.58762156095611 45.16528848626164 0.0
    vertex 31.58762156095611 24.16528848626164 3.9999999999999996
    vertex 31.58762156095611 24.16528848626164 0.0
  endloop
endfacet
facet normal 1.0 0.0 0.0
  outer loop
    vertex 31.58762156095611 24.16528848626164 3.9999999999999996
    vertex 31.58762156095611 45.16528848626164 0.0
    vertex 31.58762156095611 45.16528848626164 3.9999999999999996
  endloop
endfacet
facet normal 1.0 6.09722482713059e-16 0.0
  outer loop
    vertex 64.5876215609561 53.16528848626164 0.0
    vertex 64.58762156095611 16.165288486261645 3.9999999999999996
    vertex 64.58762156095611 16.165288486261645 0.0
  endloop
endfacet
facet normal 1.0 6.09722482713059e-16 0.0
  outer loop
    vertex 64.58762156095611 16.165288486261645 3.9999999999999996
    vertex 64.5876215609561 53.16528848626164 0.0
    vertex 64.5876215609561 53.16528848626164 3.9999999999999996
  endloop
endfacet
facet normal 0.0 1.0 0.0
  outer loop
    vertex 31.58762156095611 24.16528848626164 3.9999999999999996
    vertex 60.5876215609561 24.16528848626164 0.0
    vertex 31.58762156095611 24.16528848626164 0.0
  endloop
endfacet
facet normal 0.0 1.0 0.0
  outer loop
    vertex 60.5876215609561 24.16528848626164 0.0
    vertex 31.58762156095611 24.16528848626164 3.9999999999999996
    vertex 60.5876215609561 24.16528848626164 3.9999999999999996
  endloop
endfacet
facet normal -1.0 0.0 0.0
  outer loop
    vertex 52.0876215609561 51.165288486261645 3.9999999999999996
    vertex 52.0876215609561 47.16528848626164 1.9999999999999998
    vertex 52.0876215609561 47.16528848626164 3.9999999999999996
  endloop
endfacet
facet normal -1.0 0.0 0.0
  outer loop
    vertex 52.0876215609561 47.16528848626164 1.9999999999999998
    vertex 52.0876215609561 51.165288486261645 3.9999999999999996
    vertex 52.0876215609561 51.165288486261645 1.9999999999999998
  endloop
endfacet
facet normal 1.0 0.0 0.0
  outer loop
    vertex 40.0876215609561 51.165288486261645 1.9999999999999998
    vertex 40.0876215609561 47.16528848626164 3.9999999999999996
    vertex 40.0876215609561 47.16528848626164 1.9999999999999998
  endloop
endfacet
facet normal 1.0 0.0 0.0
  outer loop
    vertex 40.0876215609561 47.16528848626164 3.9999999999999996
    vertex 40.0876215609561 51.165288486261645 1.9999999999999998
    vertex 40.0876215609561 51.165288486261645 3.9999999999999996
  endloop
endfacet
facet normal 0.0 -1.0 0.0
  outer loop
    vertex 52.0876215609561 51.165288486261645 3.9999999999999996
    vertex 40.0876215609561 51.165288486261645 1.9999999999999998
    vertex 52.0876215609561 51.165288486261645 1.9999999999999998
  endloop
endfacet
facet normal 0.0 -1.0 0.0
  outer loop
    vertex 40.0876215609561 51.165288486261645 1.9999999999999998
    vertex 52.0876215609561 51.165288486261645 3.9999999999999996
    vertex 40.0876215609561 51.165288486261645 3.9999999999999996
  endloop
endfacet
facet normal 0.0 1.0 0.0
  outer loop
    vertex 40.0876215609561 47.16528848626164 3.9999999999999996
    vertex 52.0876215609561 47.16528848626164 1.9999999999999998
    vertex 40.0876215609561 47.16528848626164 1.9999999999999998
  endloop
endfacet
facet normal 0.0 1.0 0.0
  outer loop
    vertex 52.0876215609561 47.16528848626164 1.9999999999999998
    vertex 40.0876215609561 47.16528848626164 3.9999999999999996
    vertex 52.0876215609561 47.16528848626164 3.9999999999999996
  endloop
endfacet
facet normal 0.0 0.0 1.0
  outer loop
    vertex 52.0876215609561 47.16528848626164 1.9999999999999998
    vertex 40.0876215609561 51.165288486261645 1.9999999999999998
    vertex 40.0876215609561 47.16528848626164 1.9999999999999998
  endloop
endfacet
facet normal 0.0 0.0 1.0
  outer loop
    vertex 40.0876215609561 51.165288486261645 1.9999999999999998
    vertex 52.0876215609561 47.16528848626164 1.9999999999999998
    vertex 52.0876215609561 51.165288486261645 1.9999999999999998
  endloop
endfacet
endsolid doomsday
