solid doomsdayback
facet normal 1.240785252321077e-14 -2.1741398322246097e-31 1.0
  outer loop
    vertex 238.05420860490625 91.80065521029793 2.999999999999769
    vertex 208.0542086049063 120.80065521029793 3.000000000000141
    vertex 208.0542086049063 91.80065521029793 3.000000000000141
  endloop
endfacet
facet normal 1.240785252321077e-14 -2.1741398322246097e-31 1.0
  outer loop
    vertex 208.0542086049063 120.80065521029793 3.000000000000141
    vertex 238.05420860490625 91.80065521029793 2.999999999999769
    vertex 238.05420860490625 120.80065521029793 2.999999999999769
  endloop
endfacet
facet normal -1.0 2.550512685803966e-32 1.3086007604814423e-15
  outer loop
    vertex 208.05420860490653 88.80065521029795 35.000000000000114
    vertex 208.05420860490628 91.80065521029793 32.00000000000012
    vertex 208.0542086049065 88.80065521029795 1.2971845819720328e-13
  endloop
endfacet
facet normal -1.0 2.550512685803966e-32 1.3086007604814423e-15
  outer loop
    vertex 208.05420860490628 91.80065521029793 32.00000000000012
    vertex 208.05420860490653 88.80065521029795 35.000000000000114
    vertex 208.05420860490653 123.80065521029792 35.000000000000114
  endloop
endfacet
facet normal -1.0 2.550512685803966e-32 1.3086007604814423e-15
  outer loop
    vertex 208.05420860490628 91.80065521029793 32.00000000000012
    vertex 208.05420860490653 123.80065521029792 35.000000000000114
    vertex 208.05420860490628 120.80065521029793 32.00000000000012
  endloop
endfacet
facet normal -1.0 2.550512685803966e-32 1.3086007604814423e-15
  outer loop
    vertex 208.05420860490628 120.80065521029793 32.00000000000012
    vertex 208.05420860490653 123.80065521029792 35.000000000000114
    vertex 208.0542086049063 120.80065521029793 3.000000000000141
  endloop
endfacet
facet normal -1.0 2.550512685803966e-32 1.3086007604814423e-15
  outer loop
    vertex 208.0542086049065 88.80065521029795 1.2971845819720328e-13
    vertex 208.0542086049063 91.80065521029793 3.000000000000141
    vertex 208.0542086049065 123.80065521029792 1.2971845819720328e-13
  endloop
endfacet
facet normal -1.0 2.550512685803966e-32 1.3086007604814423e-15
  outer loop
    vertex 208.0542086049063 91.80065521029793 3.000000000000141
    vertex 208.0542086049065 88.80065521029795 1.2971845819720328e-13
    vertex 208.05420860490628 91.80065521029793 32.00000000000012
  endloop
endfacet
facet normal -1.0 2.550512685803966e-32 1.3086007604814423e-15
  outer loop
    vertex 208.0542086049065 123.80065521029792 1.2971845819720328e-13
    vertex 208.0542086049063 91.80065521029793 3.000000000000141
    vertex 208.0542086049063 120.80065521029793 3.000000000000141
  endloop
endfacet
facet normal -1.0 2.550512685803966e-32 1.3086007604814423e-15
  outer loop
    vertex 208.0542086049065 123.80065521029792 1.2971845819720328e-13
    vertex 208.0542086049063 120.80065521029793 3.000000000000141
    vertex 208.05420860490653 123.80065521029792 35.000000000000114
  endloop
endfacet
facet normal -2.081668171172169e-16 0.0 -1.0
  outer loop
    vertex 240.0542086049063 123.80065521029792 -9.023892744153272e-14
    vertex 208.0542086049065 88.80065521029795 1.2971845819720328e-13
    vertex 208.0542086049065 123.80065521029792 1.2971845819720328e-13
  endloop
endfacet
facet normal -2.081668171172169e-16 0.0 -1.0
  outer loop
    vertex 208.0542086049065 88.80065521029795 1.2971845819720328e-13
    vertex 240.0542086049063 123.80065521029792 -9.023892744153272e-14
    vertex 240.0542086049063 88.80065521029795 -9.023892744153272e-14
  endloop
endfacet
facet normal 0.0 -1.0 0.0
  outer loop
    vertex 240.0542086049064 88.80065521029795 27.000000000000007
    vertex 208.0542086049065 88.80065521029795 1.2971845819720328e-13
    vertex 240.0542086049063 88.80065521029795 -9.023892744153272e-14
  endloop
endfacet
facet normal 0.0 -1.0 0.0
  outer loop
    vertex 208.0542086049065 88.80065521029795 1.2971845819720328e-13
    vertex 240.0542086049064 88.80065521029795 27.000000000000007
    vertex 208.05420860490653 88.80065521029795 35.000000000000114
  endloop
endfacet
facet normal 0.0 -1.0 0.0
  outer loop
    vertex 208.05420860490653 88.80065521029795 35.000000000000114
    vertex 240.0542086049064 88.80065521029795 27.000000000000007
    vertex 215.05420860490653 88.80065521029795 33.90625000000009
  endloop
endfacet
facet normal 0.0 -1.0 0.0
  outer loop
    vertex 208.05420860490653 88.80065521029795 35.000000000000114
    vertex 215.05420860490653 88.80065521029795 33.90625000000009
    vertex 215.05420860490653 88.80065521029795 35.000000000000114
  endloop
endfacet
facet normal -0.0 1.0 -0.0
  outer loop
    vertex 208.0542086049065 123.80065521029792 1.2971845819720328e-13
    vertex 240.0542086049064 123.80065521029792 27.000000000000007
    vertex 240.0542086049063 123.80065521029792 -9.023892744153272e-14
  endloop
endfacet
facet normal -0.0 1.0 -0.0
  outer loop
    vertex 240.0542086049064 123.80065521029792 27.000000000000007
    vertex 208.0542086049065 123.80065521029792 1.2971845819720328e-13
    vertex 208.05420860490653 123.80065521029792 35.000000000000114
  endloop
endfacet
facet normal -0.0 1.0 -0.0
  outer loop
    vertex 240.0542086049064 123.80065521029792 27.000000000000007
    vertex 208.05420860490653 123.80065521029792 35.000000000000114
    vertex 215.05420860490653 123.80065521029792 33.90625000000009
  endloop
endfacet
facet normal -0.0 1.0 -0.0
  outer loop
    vertex 215.05420860490653 123.80065521029792 33.90625000000009
    vertex 208.05420860490653 123.80065521029792 35.000000000000114
    vertex 215.05420860490653 123.80065521029792 35.000000000000114
  endloop
endfacet
facet normal -0.0 -0.0 1.0
  outer loop
    vertex 215.05420860490653 88.80065521029795 35.000000000000114
    vertex 208.05420860490653 123.80065521029792 35.000000000000114
    vertex 208.05420860490653 88.80065521029795 35.000000000000114
  endloop
endfacet
facet normal -0.0 -0.0 1.0
  outer loop
    vertex 208.05420860490653 123.80065521029792 35.000000000000114
    vertex 215.05420860490653 88.80065521029795 35.000000000000114
    vertex 215.05420860490653 123.80065521029792 35.000000000000114
  endloop
endfacet
facet normal 1.0 -0.0 -0.0
  outer loop
    vertex 215.05420860490653 123.80065521029792 33.90625000000009
    vertex 215.05420860490653 88.80065521029795 35.000000000000114
    vertex 215.05420860490653 88.80065521029795 33.90625000000009
  endloop
endfacet
facet normal 1.0 -0.0 -0.0
  outer loop
    vertex 215.05420860490653 88.80065521029795 35.000000000000114
    vertex 215.05420860490653 123.80065521029792 33.90625000000009
    vertex 215.05420860490653 123.80065521029792 35.000000000000114
  endloop
endfacet
facet normal 0.266276462946514 -0.0 0.9638966984489021
  outer loop
    vertex 240.0542086049064 88.80065521029795 27.000000000000007
    vertex 215.05420860490653 123.80065521029792 33.90625000000009
    vertex 215.05420860490653 88.80065521029795 33.90625000000009
  endloop
endfacet
facet normal 0.266276462946514 -0.0 0.9638966984489021
  outer loop
    vertex 215.05420860490653 123.80065521029792 33.90625000000009
    vertex 240.0542086049064 88.80065521029795 27.000000000000007
    vertex 240.0542086049064 123.80065521029792 27.000000000000007
  endloop
endfacet
facet normal -1.0 0.0 0.0
  outer loop
    vertex 238.05420860490625 91.80065521029793 25.62500000000004
    vertex 238.05420860490645 104.88644164792483 18.556494630214683
    vertex 238.05420860490625 91.80065521029793 2.999999999999769
  endloop
endfacet
facet normal -1.0 0.0 0.0
  outer loop
    vertex 238.05420860490645 104.88644164792483 18.556494630214683
    vertex 238.05420860490625 91.80065521029793 25.62500000000004
    vertex 238.05420860490645 105.30065521029793 18.874331875410462
  endloop
endfacet
facet normal -1.0 0.0 0.0
  outer loop
    vertex 238.05420860490645 105.30065521029793 18.874331875410462
    vertex 238.05420860490625 91.80065521029793 25.62500000000004
    vertex 238.05420860490625 120.80065521029793 25.62500000000004
  endloop
endfacet
facet normal -1.0 0.0 0.0
  outer loop
    vertex 238.05420860490625 91.80065521029793 2.999999999999769
    vertex 238.05420860490645 104.88644164792483 18.556494630214683
    vertex 238.05420860490645 104.56860440272906 18.142281067841587
  endloop
endfacet
facet normal -1.0 0.0 0.0
  outer loop
    vertex 238.05420860490625 91.80065521029793 2.999999999999769
    vertex 238.05420860490645 104.56860440272906 18.142281067841587
    vertex 238.05420860490645 104.36880355771979 17.65991915804663
  endloop
endfacet
facet normal -1.0 0.0 0.0
  outer loop
    vertex 238.05420860490625 91.80065521029793 2.999999999999769
    vertex 238.05420860490645 104.36880355771979 17.65991915804663
    vertex 238.0542086049064 101.30065521029793 9.999999999999902
  endloop
endfacet
facet normal -1.0 0.0 0.0
  outer loop
    vertex 238.0542086049064 101.30065521029793 9.999999999999902
    vertex 238.05420860490645 104.36880355771979 17.65991915804663
    vertex 238.05420860490645 104.30065521029793 17.142281067841587
  endloop
endfacet
facet normal -1.0 0.0 0.0
  outer loop
    vertex 238.05420860490645 105.30065521029793 18.874331875410462
    vertex 238.05420860490625 120.80065521029793 25.62500000000004
    vertex 238.05420860490645 105.78301712009288 19.074132720419723
  endloop
endfacet
facet normal -1.0 0.0 0.0
  outer loop
    vertex 238.05420860490645 105.78301712009288 19.074132720419723
    vertex 238.05420860490625 120.80065521029793 25.62500000000004
    vertex 238.05420860490645 106.30065521029793 19.142281067841587
  endloop
endfacet
facet normal -1.0 0.0 0.0
  outer loop
    vertex 238.05420860490645 106.30065521029793 19.142281067841587
    vertex 238.05420860490625 120.80065521029793 25.62500000000004
    vertex 238.05420860490645 106.81829330050297 19.074132720419723
  endloop
endfacet
facet normal -1.0 0.0 0.0
  outer loop
    vertex 238.05420860490645 106.81829330050297 19.074132720419723
    vertex 238.05420860490625 120.80065521029793 25.62500000000004
    vertex 238.05420860490645 107.30065521029793 18.874331875410462
  endloop
endfacet
facet normal -1.0 0.0 0.0
  outer loop
    vertex 238.05420860490645 107.30065521029793 18.874331875410462
    vertex 238.05420860490625 120.80065521029793 25.62500000000004
    vertex 238.05420860490645 107.71486877267102 18.556494630214683
  endloop
endfacet
facet normal -1.0 0.0 0.0
  outer loop
    vertex 238.05420860490645 107.71486877267102 18.556494630214683
    vertex 238.05420860490625 120.80065521029793 25.62500000000004
    vertex 238.05420860490645 108.0327060178668 18.142281067841587
  endloop
endfacet
facet normal -1.0 0.0 0.0
  outer loop
    vertex 238.05420860490645 108.0327060178668 18.142281067841587
    vertex 238.05420860490625 120.80065521029793 25.62500000000004
    vertex 238.05420860490645 108.23250686287608 17.65991915804663
  endloop
endfacet
facet normal -1.0 0.0 0.0
  outer loop
    vertex 238.05420860490645 108.23250686287608 17.65991915804663
    vertex 238.05420860490625 120.80065521029793 25.62500000000004
    vertex 238.05420860490645 108.30065521029793 17.142281067841587
  endloop
endfacet
facet normal -1.0 0.0 0.0
  outer loop
    vertex 238.05420860490645 108.30065521029793 17.142281067841587
    vertex 238.05420860490625 120.80065521029793 25.62500000000004
    vertex 238.0542086049064 111.30065521029792 9.999999999999902
  endloop
endfacet
facet normal -1.0 0.0 0.0
  outer loop
    vertex 238.0542086049064 111.30065521029792 9.999999999999902
    vertex 238.05420860490625 120.80065521029793 25.62500000000004
    vertex 238.05420860490625 111.30065521029792 3.9999999999997686
  endloop
endfacet
facet normal -1.0 0.0 0.0
  outer loop
    vertex 238.05420860490625 91.80065521029793 2.999999999999769
    vertex 238.05420860490625 101.30065521029793 3.9999999999997686
    vertex 238.05420860490625 120.80065521029793 2.999999999999769
  endloop
endfacet
facet normal -1.0 0.0 0.0
  outer loop
    vertex 238.05420860490625 101.30065521029793 3.9999999999997686
    vertex 238.05420860490625 91.80065521029793 2.999999999999769
    vertex 238.0542086049064 101.30065521029793 9.999999999999902
  endloop
endfacet
facet normal -1.0 0.0 0.0
  outer loop
    vertex 238.05420860490625 120.80065521029793 2.999999999999769
    vertex 238.05420860490625 101.30065521029793 3.9999999999997686
    vertex 238.05420860490625 111.30065521029792 3.9999999999997686
  endloop
endfacet
facet normal -1.0 0.0 0.0
  outer loop
    vertex 238.05420860490625 120.80065521029793 2.999999999999769
    vertex 238.05420860490625 111.30065521029792 3.9999999999997686
    vertex 238.05420860490625 120.80065521029793 25.62500000000004
  endloop
endfacet
facet normal -1.0 0.0 0.0
  outer loop
    vertex 238.0542086049064 101.30065521029793 9.999999999999902
    vertex 238.05420860490645 104.88644164792483 15.728067505468493
    vertex 238.0542086049064 111.30065521029792 9.999999999999902
  endloop
endfacet
facet normal -1.0 0.0 0.0
  outer loop
    vertex 238.05420860490645 104.88644164792483 15.728067505468493
    vertex 238.0542086049064 101.30065521029793 9.999999999999902
    vertex 238.05420860490645 104.56860440272906 16.142281067841587
  endloop
endfacet
facet normal -1.0 0.0 0.0
  outer loop
    vertex 238.05420860490645 104.56860440272906 16.142281067841587
    vertex 238.0542086049064 101.30065521029793 9.999999999999902
    vertex 238.05420860490645 104.36880355771979 16.624642977636547
  endloop
endfacet
facet normal -1.0 0.0 0.0
  outer loop
    vertex 238.05420860490645 104.36880355771979 16.624642977636547
    vertex 238.0542086049064 101.30065521029793 9.999999999999902
    vertex 238.05420860490645 104.30065521029793 17.142281067841587
  endloop
endfacet
facet normal -1.0 0.0 0.0
  outer loop
    vertex 238.0542086049064 111.30065521029792 9.999999999999902
    vertex 238.05420860490645 104.88644164792483 15.728067505468493
    vertex 238.05420860490645 105.30065521029793 15.41023026027271
  endloop
endfacet
facet normal -1.0 0.0 0.0
  outer loop
    vertex 238.0542086049064 111.30065521029792 9.999999999999902
    vertex 238.05420860490645 105.30065521029793 15.41023026027271
    vertex 238.05420860490645 105.78301712009288 15.21042941526345
  endloop
endfacet
facet normal -1.0 0.0 0.0
  outer loop
    vertex 238.0542086049064 111.30065521029792 9.999999999999902
    vertex 238.05420860490645 105.78301712009288 15.21042941526345
    vertex 238.05420860490645 106.30065521029793 15.142281067841587
  endloop
endfacet
facet normal -1.0 0.0 0.0
  outer loop
    vertex 238.0542086049064 111.30065521029792 9.999999999999902
    vertex 238.05420860490645 106.30065521029793 15.142281067841587
    vertex 238.05420860490645 106.81829330050297 15.21042941526345
  endloop
endfacet
facet normal -1.0 0.0 0.0
  outer loop
    vertex 238.0542086049064 111.30065521029792 9.999999999999902
    vertex 238.05420860490645 106.81829330050297 15.21042941526345
    vertex 238.05420860490645 107.30065521029793 15.41023026027271
  endloop
endfacet
facet normal -1.0 0.0 0.0
  outer loop
    vertex 238.0542086049064 111.30065521029792 9.999999999999902
    vertex 238.05420860490645 107.30065521029793 15.41023026027271
    vertex 238.05420860490645 107.71486877267102 15.728067505468493
  endloop
endfacet
facet normal -1.0 0.0 0.0
  outer loop
    vertex 238.0542086049064 111.30065521029792 9.999999999999902
    vertex 238.05420860490645 107.71486877267102 15.728067505468493
    vertex 238.05420860490645 108.0327060178668 16.142281067841587
  endloop
endfacet
facet normal -1.0 0.0 0.0
  outer loop
    vertex 238.0542086049064 111.30065521029792 9.999999999999902
    vertex 238.05420860490645 108.0327060178668 16.142281067841587
    vertex 238.05420860490645 108.23250686287608 16.624642977636547
  endloop
endfacet
facet normal -1.0 0.0 0.0
  outer loop
    vertex 238.0542086049064 111.30065521029792 9.999999999999902
    vertex 238.05420860490645 108.23250686287608 16.624642977636547
    vertex 238.05420860490645 108.30065521029793 17.142281067841587
  endloop
endfacet
facet normal 0.0 -1.0 0.0
  outer loop
    vertex 238.05420860490625 120.80065521029793 25.62500000000004
    vertex 208.0542086049063 120.80065521029793 3.000000000000141
    vertex 238.05420860490625 120.80065521029793 2.999999999999769
  endloop
endfacet
facet normal 0.0 -1.0 0.0
  outer loop
    vertex 208.0542086049063 120.80065521029793 3.000000000000141
    vertex 238.05420860490625 120.80065521029793 25.62500000000004
    vertex 208.05420860490628 120.80065521029793 32.00000000000012
  endloop
endfacet
facet normal 0.0 -1.0 0.0
  outer loop
    vertex 208.05420860490628 120.80065521029793 32.00000000000012
    vertex 238.05420860490625 120.80065521029793 25.62500000000004
    vertex 215.05420860490653 120.80065521029793 32.812500000000085
  endloop
endfacet
facet normal 0.11529735086229631 0.0 -0.9933310228137128
  outer loop
    vertex 215.05420860490653 120.80065521029793 32.812500000000085
    vertex 208.05420860490628 91.80065521029793 32.00000000000012
    vertex 208.05420860490628 120.80065521029793 32.00000000000012
  endloop
endfacet
facet normal 0.11529735086229631 0.0 -0.9933310228137128
  outer loop
    vertex 208.05420860490628 91.80065521029793 32.00000000000012
    vertex 215.05420860490653 120.80065521029793 32.812500000000085
    vertex 215.05420860490653 91.80065521029793 32.812500000000085
  endloop
endfacet
facet normal 0.29827499313595174 -0.0 0.9544799780350283
  outer loop
    vertex 238.05420860490625 91.80065521029793 25.62500000000004
    vertex 215.05420860490653 120.80065521029793 32.812500000000085
    vertex 215.05420860490653 91.80065521029793 32.812500000000085
  endloop
endfacet
facet normal 0.29827499313595174 -0.0 0.9544799780350283
  outer loop
    vertex 215.05420860490653 120.80065521029793 32.812500000000085
    vertex 238.05420860490625 91.80065521029793 25.62500000000004
    vertex 238.05420860490625 120.80065521029793 25.62500000000004
  endloop
endfacet
facet normal -0.0 1.0 -0.0
  outer loop
    vertex 208.0542086049063 91.80065521029793 3.000000000000141
    vertex 238.05420860490625 91.80065521029793 25.62500000000004
    vertex 238.05420860490625 91.80065521029793 2.999999999999769
  endloop
endfacet
facet normal -0.0 1.0 -0.0
  outer loop
    vertex 238.05420860490625 91.80065521029793 25.62500000000004
    vertex 208.0542086049063 91.80065521029793 3.000000000000141
    vertex 208.05420860490628 91.80065521029793 32.00000000000012
  endloop
endfacet
facet normal -0.0 1.0 -0.0
  outer loop
    vertex 238.05420860490625 91.80065521029793 25.62500000000004
    vertex 208.05420860490628 91.80065521029793 32.00000000000012
    vertex 215.05420860490653 91.80065521029793 32.812500000000085
  endloop
endfacet
facet normal -0.0 0.9238795325112747 -0.38268343236511915
  outer loop
    vertex 238.05420860490645 104.56860440272906 18.142281067841587
    vertex 240.05420860490634 104.36880355771979 17.65991915804663
    vertex 238.05420860490645 104.36880355771979 17.65991915804663
  endloop
endfacet
facet normal -0.0 0.9238795325112747 -0.38268343236511915
  outer loop
    vertex 240.05420860490634 104.36880355771979 17.65991915804663
    vertex 238.05420860490645 104.56860440272906 18.142281067841587
    vertex 240.05420860490634 104.56860440272906 18.142281067841587
  endloop
endfacet
facet normal -0.0 0.7933533402912477 -0.6087614290087043
  outer loop
    vertex 238.05420860490645 104.88644164792483 18.556494630214683
    vertex 240.05420860490634 104.56860440272906 18.142281067841587
    vertex 238.05420860490645 104.56860440272906 18.142281067841587
  endloop
endfacet
facet normal -0.0 0.7933533402912477 -0.6087614290087043
  outer loop
    vertex 240.05420860490634 104.56860440272906 18.142281067841587
    vertex 238.05420860490645 104.88644164792483 18.556494630214683
    vertex 240.05420860490634 104.88644164792483 18.556494630214683
  endloop
endfacet
facet normal -0.0 0.9238795325112747 0.38268343236511915
  outer loop
    vertex 238.05420860490645 104.36880355771979 16.624642977636547
    vertex 240.05420860490634 104.56860440272906 16.142281067841587
    vertex 238.05420860490645 104.56860440272906 16.142281067841587
  endloop
endfacet
facet normal -0.0 0.9238795325112747 0.38268343236511915
  outer loop
    vertex 240.05420860490634 104.56860440272906 16.142281067841587
    vertex 238.05420860490645 104.36880355771979 16.624642977636547
    vertex 240.05420860490634 104.36880355771979 16.624642977636547
  endloop
endfacet
facet normal -0.0 -0.38268343236509517 0.9238795325112846
  outer loop
    vertex 240.05420860490634 106.81829330050297 15.21042941526345
    vertex 238.05420860490645 107.30065521029793 15.41023026027271
    vertex 238.05420860490645 106.81829330050297 15.21042941526345
  endloop
endfacet
facet normal -0.0 -0.38268343236509517 0.9238795325112846
  outer loop
    vertex 238.05420860490645 107.30065521029793 15.41023026027271
    vertex 240.05420860490634 106.81829330050297 15.21042941526345
    vertex 240.05420860490634 107.30065521029793 15.41023026027271
  endloop
endfacet
facet normal -0.0 0.9914448613738134 -0.13052619222003026
  outer loop
    vertex 238.05420860490645 104.36880355771979 17.65991915804663
    vertex 240.05420860490634 104.30065521029793 17.142281067841587
    vertex 238.05420860490645 104.30065521029793 17.142281067841587
  endloop
endfacet
facet normal -0.0 0.9914448613738134 -0.13052619222003026
  outer loop
    vertex 240.05420860490634 104.30065521029793 17.142281067841587
    vertex 238.05420860490645 104.36880355771979 17.65991915804663
    vertex 240.05420860490634 104.36880355771979 17.65991915804663
  endloop
endfacet
facet normal 0.0 -0.7933533402912477 0.6087614290087043
  outer loop
    vertex 240.05420860490634 108.0327060178668 16.142281067841587
    vertex 238.05420860490645 107.71486877267102 15.728067505468493
    vertex 240.05420860490634 107.71486877267102 15.728067505468493
  endloop
endfacet
facet normal 0.0 -0.7933533402912477 0.6087614290087043
  outer loop
    vertex 238.05420860490645 107.71486877267102 15.728067505468493
    vertex 240.05420860490634 108.0327060178668 16.142281067841587
    vertex 238.05420860490645 108.0327060178668 16.142281067841587
  endloop
endfacet
facet normal -0.0 0.38268343236509517 0.9238795325112846
  outer loop
    vertex 240.05420860490634 105.30065521029793 15.41023026027271
    vertex 238.05420860490645 105.78301712009288 15.21042941526345
    vertex 238.05420860490645 105.30065521029793 15.41023026027271
  endloop
endfacet
facet normal -0.0 0.38268343236509517 0.9238795325112846
  outer loop
    vertex 238.05420860490645 105.78301712009288 15.21042941526345
    vertex 240.05420860490634 105.30065521029793 15.41023026027271
    vertex 240.05420860490634 105.78301712009288 15.21042941526345
  endloop
endfacet
facet normal 0.0 -0.9238795325112747 0.38268343236511915
  outer loop
    vertex 240.05420860490634 108.23250686287608 16.624642977636547
    vertex 238.05420860490645 108.0327060178668 16.142281067841587
    vertex 240.05420860490634 108.0327060178668 16.142281067841587
  endloop
endfacet
facet normal 0.0 -0.9238795325112747 0.38268343236511915
  outer loop
    vertex 238.05420860490645 108.0327060178668 16.142281067841587
    vertex 240.05420860490634 108.23250686287608 16.624642977636547
    vertex 238.05420860490645 108.23250686287608 16.624642977636547
  endloop
endfacet
facet normal 0.0 -0.38268343236509517 -0.9238795325112846
  outer loop
    vertex 240.05420860490634 107.30065521029793 18.874331875410462
    vertex 238.05420860490645 106.81829330050297 19.074132720419723
    vertex 238.05420860490645 107.30065521029793 18.874331875410462
  endloop
endfacet
facet normal 0.0 -0.38268343236509517 -0.9238795325112846
  outer loop
    vertex 238.05420860490645 106.81829330050297 19.074132720419723
    vertex 240.05420860490634 107.30065521029793 18.874331875410462
    vertex 240.05420860490634 106.81829330050297 19.074132720419723
  endloop
endfacet
facet normal 0.0 -0.13052619222005077 -0.9914448613738105
  outer loop
    vertex 240.05420860490634 106.81829330050297 19.074132720419723
    vertex 238.05420860490645 106.30065521029793 19.142281067841587
    vertex 238.05420860490645 106.81829330050297 19.074132720419723
  endloop
endfacet
facet normal 0.0 -0.13052619222005077 -0.9914448613738105
  outer loop
    vertex 238.05420860490645 106.30065521029793 19.142281067841587
    vertex 240.05420860490634 106.81829330050297 19.074132720419723
    vertex 240.05420860490634 106.30065521029793 19.142281067841587
  endloop
endfacet
facet normal -0.0 0.7933533402912477 0.6087614290087043
  outer loop
    vertex 238.05420860490645 104.56860440272906 16.142281067841587
    vertex 240.05420860490634 104.88644164792483 15.728067505468493
    vertex 238.05420860490645 104.88644164792483 15.728067505468493
  endloop
endfacet
facet normal -0.0 0.7933533402912477 0.6087614290087043
  outer loop
    vertex 240.05420860490634 104.88644164792483 15.728067505468493
    vertex 238.05420860490645 104.56860440272906 16.142281067841587
    vertex 240.05420860490634 104.56860440272906 16.142281067841587
  endloop
endfacet
facet normal 0.0 0.13052619222005077 -0.9914448613738105
  outer loop
    vertex 240.05420860490634 106.30065521029793 19.142281067841587
    vertex 238.05420860490645 105.78301712009288 19.074132720419723
    vertex 238.05420860490645 106.30065521029793 19.142281067841587
  endloop
endfacet
facet normal 0.0 0.13052619222005077 -0.9914448613738105
  outer loop
    vertex 238.05420860490645 105.78301712009288 19.074132720419723
    vertex 240.05420860490634 106.30065521029793 19.142281067841587
    vertex 240.05420860490634 105.78301712009288 19.074132720419723
  endloop
endfacet
facet normal 0.0 -0.7933533402912477 -0.6087614290087043
  outer loop
    vertex 240.05420860490634 107.71486877267102 18.556494630214683
    vertex 238.05420860490645 108.0327060178668 18.142281067841587
    vertex 240.05420860490634 108.0327060178668 18.142281067841587
  endloop
endfacet
facet normal 0.0 -0.7933533402912477 -0.6087614290087043
  outer loop
    vertex 238.05420860490645 108.0327060178668 18.142281067841587
    vertex 240.05420860490634 107.71486877267102 18.556494630214683
    vertex 238.05420860490645 107.71486877267102 18.556494630214683
  endloop
endfacet
facet normal 0.0 0.38268343236509517 -0.9238795325112846
  outer loop
    vertex 240.05420860490634 105.78301712009288 19.074132720419723
    vertex 238.05420860490645 105.30065521029793 18.874331875410462
    vertex 238.05420860490645 105.78301712009288 19.074132720419723
  endloop
endfacet
facet normal 0.0 0.38268343236509517 -0.9238795325112846
  outer loop
    vertex 238.05420860490645 105.30065521029793 18.874331875410462
    vertex 240.05420860490634 105.78301712009288 19.074132720419723
    vertex 240.05420860490634 105.30065521029793 18.874331875410462
  endloop
endfacet
facet normal -0.0 -0.13052619222005077 0.9914448613738105
  outer loop
    vertex 240.05420860490634 106.30065521029793 15.142281067841587
    vertex 238.05420860490645 106.81829330050297 15.21042941526345
    vertex 238.05420860490645 106.30065521029793 15.142281067841587
  endloop
endfacet
facet normal -0.0 -0.13052619222005077 0.9914448613738105
  outer loop
    vertex 238.05420860490645 106.81829330050297 15.21042941526345
    vertex 240.05420860490634 106.30065521029793 15.142281067841587
    vertex 240.05420860490634 106.81829330050297 15.21042941526345
  endloop
endfacet
facet normal 0.0 0.6087614290087128 -0.7933533402912413
  outer loop
    vertex 240.05420860490634 105.30065521029793 18.874331875410462
    vertex 238.05420860490645 104.88644164792483 18.556494630214683
    vertex 238.05420860490645 105.30065521029793 18.874331875410462
  endloop
endfacet
facet normal 0.0 0.6087614290087128 -0.7933533402912413
  outer loop
    vertex 238.05420860490645 104.88644164792483 18.556494630214683
    vertex 240.05420860490634 105.30065521029793 18.874331875410462
    vertex 240.05420860490634 104.88644164792483 18.556494630214683
  endloop
endfacet
facet normal 0.0 -0.9914448613738134 -0.13052619222003026
  outer loop
    vertex 240.05420860490634 108.23250686287608 17.65991915804663
    vertex 238.05420860490645 108.30065521029793 17.142281067841587
    vertex 240.05420860490634 108.30065521029793 17.142281067841587
  endloop
endfacet
facet normal 0.0 -0.9914448613738134 -0.13052619222003026
  outer loop
    vertex 238.05420860490645 108.30065521029793 17.142281067841587
    vertex 240.05420860490634 108.23250686287608 17.65991915804663
    vertex 238.05420860490645 108.23250686287608 17.65991915804663
  endloop
endfacet
facet normal -0.0 0.6087614290087161 0.7933533402912387
  outer loop
    vertex 240.05420860490634 104.88644164792483 15.728067505468493
    vertex 238.05420860490645 105.30065521029793 15.41023026027271
    vertex 238.05420860490645 104.88644164792483 15.728067505468493
  endloop
endfacet
facet normal -0.0 0.6087614290087161 0.7933533402912387
  outer loop
    vertex 238.05420860490645 105.30065521029793 15.41023026027271
    vertex 240.05420860490634 104.88644164792483 15.728067505468493
    vertex 240.05420860490634 105.30065521029793 15.41023026027271
  endloop
endfacet
facet normal 0.0 -0.6087614290087128 -0.7933533402912413
  outer loop
    vertex 240.05420860490634 107.71486877267102 18.556494630214683
    vertex 238.05420860490645 107.30065521029793 18.874331875410462
    vertex 238.05420860490645 107.71486877267102 18.556494630214683
  endloop
endfacet
facet normal 0.0 -0.6087614290087128 -0.7933533402912413
  outer loop
    vertex 238.05420860490645 107.30065521029793 18.874331875410462
    vertex 240.05420860490634 107.71486877267102 18.556494630214683
    vertex 240.05420860490634 107.30065521029793 18.874331875410462
  endloop
endfacet
facet normal 0.0 -0.9914448613738132 0.13052619222003087
  outer loop
    vertex 240.05420860490634 108.30065521029793 17.142281067841587
    vertex 238.05420860490645 108.23250686287608 16.624642977636547
    vertex 240.05420860490634 108.23250686287608 16.624642977636547
  endloop
endfacet
facet normal 0.0 -0.9914448613738132 0.13052619222003087
  outer loop
    vertex 238.05420860490645 108.23250686287608 16.624642977636547
    vertex 240.05420860490634 108.30065521029793 17.142281067841587
    vertex 238.05420860490645 108.30065521029793 17.142281067841587
  endloop
endfacet
facet normal -0.0 0.13052619222005077 0.9914448613738105
  outer loop
    vertex 240.05420860490634 105.78301712009288 15.21042941526345
    vertex 238.05420860490645 106.30065521029793 15.142281067841587
    vertex 238.05420860490645 105.78301712009288 15.21042941526345
  endloop
endfacet
facet normal -0.0 0.13052619222005077 0.9914448613738105
  outer loop
    vertex 238.05420860490645 106.30065521029793 15.142281067841587
    vertex 240.05420860490634 105.78301712009288 15.21042941526345
    vertex 240.05420860490634 106.30065521029793 15.142281067841587
  endloop
endfacet
facet normal -0.0 0.9914448613738132 0.13052619222003087
  outer loop
    vertex 238.05420860490645 104.30065521029793 17.142281067841587
    vertex 240.05420860490634 104.36880355771979 16.624642977636547
    vertex 238.05420860490645 104.36880355771979 16.624642977636547
  endloop
endfacet
facet normal -0.0 0.9914448613738132 0.13052619222003087
  outer loop
    vertex 240.05420860490634 104.36880355771979 16.624642977636547
    vertex 238.05420860490645 104.30065521029793 17.142281067841587
    vertex 240.05420860490634 104.30065521029793 17.142281067841587
  endloop
endfacet
facet normal 0.0 -0.9238795325112747 -0.38268343236511915
  outer loop
    vertex 240.05420860490634 108.0327060178668 18.142281067841587
    vertex 238.05420860490645 108.23250686287608 17.65991915804663
    vertex 240.05420860490634 108.23250686287608 17.65991915804663
  endloop
endfacet
facet normal 0.0 -0.9238795325112747 -0.38268343236511915
  outer loop
    vertex 238.05420860490645 108.23250686287608 17.65991915804663
    vertex 240.05420860490634 108.0327060178668 18.142281067841587
    vertex 238.05420860490645 108.0327060178668 18.142281067841587
  endloop
endfacet
facet normal -0.0 -0.6087614290087161 0.7933533402912387
  outer loop
    vertex 240.05420860490634 107.30065521029793 15.41023026027271
    vertex 238.05420860490645 107.71486877267102 15.728067505468493
    vertex 238.05420860490645 107.30065521029793 15.41023026027271
  endloop
endfacet
facet normal -0.0 -0.6087614290087161 0.7933533402912387
  outer loop
    vertex 238.05420860490645 107.71486877267102 15.728067505468493
    vertex 240.05420860490634 107.30065521029793 15.41023026027271
    vertex 240.05420860490634 107.71486877267102 15.728067505468493
  endloop
endfacet
facet normal 0.0 0.0 -1.0
  outer loop
    vertex 240.0542086049063 111.30065521029792 9.999999999999902
    vertex 238.0542086049064 101.30065521029793 9.999999999999902
    vertex 238.0542086049064 111.30065521029792 9.999999999999902
  endloop
endfacet
facet normal 0.0 0.0 -1.0
  outer loop
    vertex 238.0542086049064 101.30065521029793 9.999999999999902
    vertex 240.0542086049063 111.30065521029792 9.999999999999902
    vertex 240.0542086049063 101.30065521029793 9.999999999999902
  endloop
endfacet
facet normal -0.0 1.0 -0.0
  outer loop
    vertex 238.0542086049064 101.30065521029793 9.999999999999902
    vertex 240.05420860490625 101.30065521029793 3.999999999999794
    vertex 238.05420860490625 101.30065521029793 3.9999999999997686
  endloop
endfacet
facet normal -0.0 1.0 -0.0
  outer loop
    vertex 240.05420860490625 101.30065521029793 3.999999999999794
    vertex 238.0542086049064 101.30065521029793 9.999999999999902
    vertex 240.0542086049063 101.30065521029793 9.999999999999902
  endloop
endfacet
facet normal 0.0 -1.0 0.0
  outer loop
    vertex 240.05420860490625 111.30065521029792 3.999999999999794
    vertex 238.0542086049064 111.30065521029792 9.999999999999902
    vertex 238.05420860490625 111.30065521029792 3.9999999999997686
  endloop
endfacet
facet normal 0.0 -1.0 0.0
  outer loop
    vertex 238.0542086049064 111.30065521029792 9.999999999999902
    vertex 240.05420860490625 111.30065521029792 3.999999999999794
    vertex 240.0542086049063 111.30065521029792 9.999999999999902
  endloop
endfacet
facet normal -1.2689849171465561e-14 -0.0 1.0
  outer loop
    vertex 240.05420860490625 101.30065521029793 3.999999999999794
    vertex 238.05420860490625 111.30065521029792 3.9999999999997686
    vertex 238.05420860490625 101.30065521029793 3.9999999999997686
  endloop
endfacet
facet normal -1.2689849171465561e-14 -0.0 1.0
  outer loop
    vertex 238.05420860490625 111.30065521029792 3.9999999999997686
    vertex 240.05420860490625 101.30065521029793 3.999999999999794
    vertex 240.05420860490625 111.30065521029792 3.999999999999794
  endloop
endfacet
facet normal 1.0 -0.0 -3.3421824978345336e-15
  outer loop
    vertex 240.0542086049063 101.30065521029793 9.999999999999902
    vertex 240.05420860490634 104.36880355771979 16.624642977636547
    vertex 240.05420860490634 104.30065521029793 17.142281067841587
  endloop
endfacet
facet normal 1.0 -0.0 -3.3421824978345336e-15
  outer loop
    vertex 240.05420860490634 104.36880355771979 16.624642977636547
    vertex 240.0542086049063 101.30065521029793 9.999999999999902
    vertex 240.05420860490634 104.56860440272906 16.142281067841587
  endloop
endfacet
facet normal 1.0 -0.0 -3.3421824978345336e-15
  outer loop
    vertex 240.05420860490634 104.56860440272906 16.142281067841587
    vertex 240.0542086049063 101.30065521029793 9.999999999999902
    vertex 240.05420860490634 104.88644164792483 15.728067505468493
  endloop
endfacet
facet normal 1.0 -0.0 -3.3421824978345336e-15
  outer loop
    vertex 240.05420860490634 104.88644164792483 15.728067505468493
    vertex 240.0542086049063 101.30065521029793 9.999999999999902
    vertex 240.0542086049063 111.30065521029792 9.999999999999902
  endloop
endfacet
facet normal 1.0 -0.0 -3.3421824978345336e-15
  outer loop
    vertex 240.05420860490634 104.88644164792483 15.728067505468493
    vertex 240.0542086049063 111.30065521029792 9.999999999999902
    vertex 240.05420860490634 105.30065521029793 15.41023026027271
  endloop
endfacet
facet normal 1.0 -0.0 -3.3421824978345336e-15
  outer loop
    vertex 240.05420860490634 105.30065521029793 15.41023026027271
    vertex 240.0542086049063 111.30065521029792 9.999999999999902
    vertex 240.05420860490634 105.78301712009288 15.21042941526345
  endloop
endfacet
facet normal 1.0 -0.0 -3.3421824978345336e-15
  outer loop
    vertex 240.05420860490634 105.78301712009288 15.21042941526345
    vertex 240.0542086049063 111.30065521029792 9.999999999999902
    vertex 240.05420860490634 106.30065521029793 15.142281067841587
  endloop
endfacet
facet normal 1.0 -0.0 -3.3421824978345336e-15
  outer loop
    vertex 240.05420860490634 106.30065521029793 15.142281067841587
    vertex 240.0542086049063 111.30065521029792 9.999999999999902
    vertex 240.05420860490634 106.81829330050297 15.21042941526345
  endloop
endfacet
facet normal 1.0 -0.0 -3.3421824978345336e-15
  outer loop
    vertex 240.05420860490634 106.81829330050297 15.21042941526345
    vertex 240.0542086049063 111.30065521029792 9.999999999999902
    vertex 240.05420860490634 107.30065521029793 15.41023026027271
  endloop
endfacet
facet normal 1.0 -0.0 -3.3421824978345336e-15
  outer loop
    vertex 240.05420860490634 107.30065521029793 15.41023026027271
    vertex 240.0542086049063 111.30065521029792 9.999999999999902
    vertex 240.05420860490634 107.71486877267102 15.728067505468493
  endloop
endfacet
facet normal 1.0 -0.0 -3.3421824978345336e-15
  outer loop
    vertex 240.05420860490634 107.71486877267102 15.728067505468493
    vertex 240.0542086049063 111.30065521029792 9.999999999999902
    vertex 240.05420860490634 108.0327060178668 16.142281067841587
  endloop
endfacet
facet normal 1.0 -0.0 -3.3421824978345336e-15
  outer loop
    vertex 240.05420860490634 108.0327060178668 16.142281067841587
    vertex 240.0542086049063 111.30065521029792 9.999999999999902
    vertex 240.05420860490634 108.23250686287608 16.624642977636547
  endloop
endfacet
facet normal 1.0 -0.0 -3.3421824978345336e-15
  outer loop
    vertex 240.05420860490634 108.23250686287608 16.624642977636547
    vertex 240.0542086049063 111.30065521029792 9.999999999999902
    vertex 240.05420860490634 108.30065521029793 17.142281067841587
  endloop
endfacet
facet normal 1.0 -0.0 -3.3421824978345336e-15
  outer loop
    vertex 240.0542086049063 88.80065521029795 -9.023892744153272e-14
    vertex 240.05420860490625 101.30065521029793 3.999999999999794
    vertex 240.0542086049064 88.80065521029795 27.000000000000007
  endloop
endfacet
facet normal 1.0 -0.0 -3.3421824978345336e-15
  outer loop
    vertex 240.05420860490625 101.30065521029793 3.999999999999794
    vertex 240.0542086049063 88.80065521029795 -9.023892744153272e-14
    vertex 240.0542086049063 123.80065521029792 -9.023892744153272e-14
  endloop
endfacet
facet normal 1.0 -0.0 -3.3421824978345336e-15
  outer loop
    vertex 240.05420860490625 101.30065521029793 3.999999999999794
    vertex 240.0542086049063 123.80065521029792 -9.023892744153272e-14
    vertex 240.05420860490625 111.30065521029792 3.999999999999794
  endloop
endfacet
facet normal 1.0 -0.0 -3.3421824978345336e-15
  outer loop
    vertex 240.05420860490625 111.30065521029792 3.999999999999794
    vertex 240.0542086049063 123.80065521029792 -9.023892744153272e-14
    vertex 240.0542086049063 111.30065521029792 9.999999999999902
  endloop
endfacet
facet normal 1.0 -0.0 -3.3421824978345336e-15
  outer loop
    vertex 240.0542086049064 88.80065521029795 27.000000000000007
    vertex 240.05420860490634 105.30065521029793 18.874331875410462
    vertex 240.0542086049064 123.80065521029792 27.000000000000007
  endloop
endfacet
facet normal 1.0 -0.0 -3.3421824978345336e-15
  outer loop
    vertex 240.05420860490634 105.30065521029793 18.874331875410462
    vertex 240.0542086049064 88.80065521029795 27.000000000000007
    vertex 240.05420860490634 104.88644164792483 18.556494630214683
  endloop
endfacet
facet normal 1.0 -0.0 -3.3421824978345336e-15
  outer loop
    vertex 240.05420860490634 104.88644164792483 18.556494630214683
    vertex 240.0542086049064 88.80065521029795 27.000000000000007
    vertex 240.05420860490634 104.56860440272906 18.142281067841587
  endloop
endfacet
facet normal 1.0 -0.0 -3.3421824978345336e-15
  outer loop
    vertex 240.05420860490634 104.56860440272906 18.142281067841587
    vertex 240.0542086049064 88.80065521029795 27.000000000000007
    vertex 240.05420860490634 104.36880355771979 17.65991915804663
  endloop
endfacet
facet normal 1.0 -0.0 -3.3421824978345336e-15
  outer loop
    vertex 240.05420860490634 104.36880355771979 17.65991915804663
    vertex 240.0542086049064 88.80065521029795 27.000000000000007
    vertex 240.0542086049063 101.30065521029793 9.999999999999902
  endloop
endfacet
facet normal 1.0 -0.0 -3.3421824978345336e-15
  outer loop
    vertex 240.0542086049063 101.30065521029793 9.999999999999902
    vertex 240.0542086049064 88.80065521029795 27.000000000000007
    vertex 240.05420860490625 101.30065521029793 3.999999999999794
  endloop
endfacet
facet normal 1.0 -0.0 -3.3421824978345336e-15
  outer loop
    vertex 240.05420860490634 104.36880355771979 17.65991915804663
    vertex 240.0542086049063 101.30065521029793 9.999999999999902
    vertex 240.05420860490634 104.30065521029793 17.142281067841587
  endloop
endfacet
facet normal 1.0 -0.0 -3.3421824978345336e-15
  outer loop
    vertex 240.0542086049064 123.80065521029792 27.000000000000007
    vertex 240.05420860490634 105.30065521029793 18.874331875410462
    vertex 240.05420860490634 105.78301712009288 19.074132720419723
  endloop
endfacet
facet normal 1.0 -0.0 -3.3421824978345336e-15
  outer loop
    vertex 240.0542086049064 123.80065521029792 27.000000000000007
    vertex 240.05420860490634 105.78301712009288 19.074132720419723
    vertex 240.05420860490634 106.30065521029793 19.142281067841587
  endloop
endfacet
facet normal 1.0 -0.0 -3.3421824978345336e-15
  outer loop
    vertex 240.0542086049064 123.80065521029792 27.000000000000007
    vertex 240.05420860490634 106.30065521029793 19.142281067841587
    vertex 240.05420860490634 106.81829330050297 19.074132720419723
  endloop
endfacet
facet normal 1.0 -0.0 -3.3421824978345336e-15
  outer loop
    vertex 240.0542086049064 123.80065521029792 27.000000000000007
    vertex 240.05420860490634 106.81829330050297 19.074132720419723
    vertex 240.05420860490634 107.30065521029793 18.874331875410462
  endloop
endfacet
facet normal 1.0 -0.0 -3.3421824978345336e-15
  outer loop
    vertex 240.0542086049064 123.80065521029792 27.000000000000007
    vertex 240.05420860490634 107.30065521029793 18.874331875410462
    vertex 240.05420860490634 107.71486877267102 18.556494630214683
  endloop
endfacet
facet normal 1.0 -0.0 -3.3421824978345336e-15
  outer loop
    vertex 240.0542086049064 123.80065521029792 27.000000000000007
    vertex 240.05420860490634 107.71486877267102 18.556494630214683
    vertex 240.05420860490634 108.0327060178668 18.142281067841587
  endloop
endfacet
facet normal 1.0 -0.0 -3.3421824978345336e-15
  outer loop
    vertex 240.0542086049064 123.80065521029792 27.000000000000007
    vertex 240.05420860490634 108.0327060178668 18.142281067841587
    vertex 240.05420860490634 108.23250686287608 17.65991915804663
  endloop
endfacet
facet normal 1.0 -0.0 -3.3421824978345336e-15
  outer loop
    vertex 240.0542086049064 123.80065521029792 27.000000000000007
    vertex 240.05420860490634 108.23250686287608 17.65991915804663
    vertex 240.05420860490634 108.30065521029793 17.142281067841587
  endloop
endfacet
facet normal 1.0 -0.0 -3.3421824978345336e-15
  outer loop
    vertex 240.0542086049064 123.80065521029792 27.000000000000007
    vertex 240.05420860490634 108.30065521029793 17.142281067841587
    vertex 240.0542086049063 111.30065521029792 9.999999999999902
  endloop
endfacet
facet normal 1.0 -0.0 -3.3421824978345336e-15
  outer loop
    vertex 240.0542086049064 123.80065521029792 27.000000000000007
    vertex 240.0542086049063 111.30065521029792 9.999999999999902
    vertex 240.0542086049063 123.80065521029792 -9.023892744153272e-14
  endloop
endfacet
endsolid doomsdayback
